<svg width="409" height="84" viewBox="0 0 409 84" fill="none" xmlns="http://www.w3.org/2000/svg">
<rect x="0.642608" y="0.642608" width="407.515" height="82.7148" rx="4.35739" stroke="#5269FF" stroke-width="1.28522" stroke-dasharray="5.14 5.14"/>
<path d="M237.568 44.9702C237.701 43.898 237.777 42.8084 237.777 41.7004C237.777 40.5925 237.701 39.503 237.568 38.4307L230.133 35.7866C229.785 34.6779 229.337 33.6133 228.808 32.5986L232.198 25.467C230.852 23.7411 229.299 22.1876 227.573 20.8423L220.441 24.2327C219.427 23.7027 218.362 23.2556 217.253 22.9069L214.61 15.4718C213.537 15.3394 212.447 15.2633 211.34 15.2633C210.232 15.2633 209.142 15.3394 208.07 15.4718L205.426 22.9065C204.317 23.2553 203.253 23.7022 202.238 24.2322L195.106 20.8419C193.38 22.1872 191.827 23.7406 190.481 25.4665L193.871 32.5983C193.342 33.6129 192.894 34.6775 192.546 35.7862L185.111 38.4304C184.979 39.5026 184.902 40.5921 184.902 41.7001C184.902 42.808 184.978 43.8976 185.111 44.9698L192.546 47.614C192.895 48.7227 193.342 49.7873 193.871 50.8019L190.481 57.9336C191.826 59.6595 193.38 61.2129 195.106 62.5582L202.238 59.1683C203.252 59.6983 204.317 60.1453 205.426 60.494L208.07 67.9287C209.142 68.0612 210.231 68.1372 211.339 68.1372C212.447 68.1372 213.537 68.0612 214.609 67.9287L217.253 60.494C218.362 60.1453 219.426 59.6983 220.441 59.1683L227.573 62.5586C229.298 61.2133 230.852 59.6599 232.197 57.934L228.807 50.8023C229.337 49.7877 229.784 48.7231 230.133 47.6143L237.568 44.9702Z" fill="white"/>
<path d="M132.105 57.2441C130.346 60.2689 128.587 63.2932 126.828 66.318C126.204 67.3906 127.864 68.3568 128.486 67.2873C130.245 64.2625 132.004 61.2382 133.763 58.2135C134.387 57.1408 132.727 56.1746 132.105 57.2441Z" fill="#516FFA"/>
<path d="M136.679 61.7807C134.92 64.8051 133.161 67.8298 131.402 70.8545C130.779 71.9271 132.439 72.8934 133.06 71.8238C134.819 68.7991 136.578 65.7747 138.337 62.75C138.961 61.6774 137.301 60.7111 136.679 61.7807Z" fill="#516FFA"/>
<path d="M143.568 59.9898C141.809 63.0142 140.05 66.0389 138.292 69.0637C137.668 70.1363 139.328 71.1025 139.949 70.033C141.708 67.0082 143.467 63.9839 145.226 60.9592C145.85 59.8865 144.19 58.9203 143.568 59.9898Z" fill="#516FFA"/>
<path d="M150.927 57.2441C149.168 60.2689 147.409 63.2932 145.65 66.318C145.026 67.3906 146.686 68.3568 147.308 67.2873C149.067 64.2625 150.826 61.2382 152.585 58.2135C153.208 57.1408 151.549 56.1746 150.927 57.2441Z" fill="#516FFA"/>
<path d="M156.341 33.6963C157.371 37.1845 157.422 40.1025 157.422 40.1025C157.422 40.1025 166.178 41.5119 166.172 48.8356C166.166 56.4665 159.103 57.4831 159.103 57.4831L129.595 57.6682L119.883 57.7293C119.883 57.7293 111.636 55.561 112.604 47.692C113.572 39.8229 118.852 40.8997 118.852 40.8997C118.852 40.8997 118.909 35.3023 122.693 33.9144C126.477 32.5265 127.873 33.8817 127.873 33.8817C127.873 33.8817 130.659 20.8446 143.895 22.1488C148.678 22.6201 151.771 25.0948 153.769 28.0635" fill="white"/>
<path d="M155.415 33.952C155.976 35.9517 156.41 38.0191 156.462 40.1033C156.472 40.4977 156.744 40.9585 157.166 41.0292C159.019 41.3391 160.803 42.1329 162.327 43.2129C165.633 45.5544 166.013 50.2293 163.878 53.4925C162.806 55.1313 160.77 56.2404 158.861 56.5561C159.433 56.4616 158.383 56.5281 158.221 56.5292C157.342 56.5346 156.462 56.5403 155.583 56.5457C146.462 56.6029 137.341 56.6602 128.219 56.7174C125.594 56.7339 122.969 56.7504 120.343 56.7669C120.067 56.7688 119.766 56.6997 120.091 56.7911C119.875 56.7308 119.665 56.6551 119.455 56.5787C118.373 56.1866 117.333 55.5898 116.431 54.8801C113.173 52.3182 112.777 47.9116 114.529 44.3032C115.31 42.694 117.297 41.5788 118.597 41.8261C119.213 41.9432 119.8 41.5607 119.813 40.9002C119.842 39.3648 120.27 37.807 121.046 36.4867C121.988 34.8837 125.8 33.3111 127.195 34.5611C127.702 35.0151 128.637 34.8826 128.8 34.1375C129.464 31.0959 131.249 28.1968 133.524 26.1122C139.166 20.9445 148.691 22.44 152.942 28.5489C153.643 29.5574 155.309 28.5992 154.6 27.5796C149.915 20.8473 140.283 18.9628 133.473 23.7111C130.265 25.9478 127.785 29.7948 126.948 33.6268C127.483 33.4854 128.018 33.3445 128.553 33.2032C126.448 31.3167 122.464 32.5737 120.566 34.098C118.683 35.6107 117.936 38.5851 117.892 40.9002C118.297 40.5918 118.703 40.283 119.108 39.9742C113.574 38.9208 111.19 45.7602 111.639 50.1088C111.95 53.1151 113.844 55.5165 116.303 57.1329C117.369 57.8338 118.855 58.696 120.183 58.6875C129.25 58.6307 138.317 58.5735 147.383 58.5166C150.895 58.4947 154.406 58.4725 157.918 58.4506C159.887 58.4383 161.586 57.8983 163.25 56.76C167.276 54.006 168.326 48.0249 165.691 43.9748C163.999 41.3752 160.688 39.6804 157.677 39.1769C157.912 39.4857 158.147 39.7941 158.382 40.1029C158.326 37.8547 157.871 35.5981 157.267 33.4413C156.933 32.2507 155.081 32.7573 155.415 33.952Z" fill="black"/>
<path d="M122.694 33.9144C126.478 32.5264 127.874 33.8817 127.874 33.8817C127.874 33.8817 128.55 30.7368 130.802 27.6909C130.052 26.5975 129.048 25.692 127.875 25.0587C126.698 24.4231 125.35 24.0625 123.918 24.0625C121.326 24.0625 119.01 25.2445 117.479 27.0991C116.289 28.5416 115.573 30.3907 115.573 32.407C115.573 35.1967 116.944 37.6649 119.047 39.18C119.378 37.4145 120.272 34.8027 122.694 33.9144Z" fill="white"/>
<path d="M122.949 34.8393C124.058 34.4668 126.362 33.8124 127.195 34.5598C127.705 35.0164 128.632 34.8789 128.8 34.1361C129.288 31.9744 130.362 29.9704 131.631 28.1746C131.809 27.9223 131.816 27.4569 131.631 27.2053C128.206 22.5615 121.937 21.8076 117.561 25.6131C113.017 29.5637 114.123 36.5817 118.562 40.0086C119.041 40.378 119.859 39.9932 119.973 39.4348C120.387 37.4101 121.182 35.6113 123.179 34.7425C124.312 34.2494 123.333 32.5957 122.209 33.0846C119.796 34.1346 118.627 36.4516 118.121 38.9244C118.591 38.7332 119.061 38.5419 119.532 38.3506C116.014 35.6347 115.604 30.6721 118.525 27.3616C121.65 23.82 127.297 24.5466 129.973 28.175C129.973 27.8521 129.973 27.5291 129.973 27.2057C128.62 29.1201 127.469 31.3192 126.948 33.6258C127.483 33.4844 128.018 33.3435 128.553 33.2022C126.928 31.7462 124.252 32.3784 122.439 32.9879C121.271 33.38 121.772 35.2349 122.949 34.8393Z" fill="black"/>
<path d="M125.019 14.5605H122.818V21.4732H125.019V14.5605Z" fill="black"/>
<path d="M112.861 31.3078H105.948V33.508H112.861V31.3078Z" fill="black"/>
<path d="M112.136 19.1024L110.58 20.6581L115.468 25.5461L117.024 23.9904L112.136 19.1024Z" fill="black"/>
<path d="M191.535 47.9217C191.93 49.1011 192.401 50.2279 192.958 51.3389C192.958 51.016 192.958 50.693 192.958 50.3696C191.828 52.7468 190.698 55.1241 189.568 57.5013C189.364 57.9307 189.426 58.2993 189.718 58.6649C191.093 60.3851 192.622 61.9144 194.342 63.2896C195.299 64.0546 196.667 62.7051 195.7 61.9316C193.98 60.5564 192.451 59.0271 191.075 57.307C191.125 57.6949 191.175 58.0827 191.226 58.4706C191.979 56.8864 192.732 55.3019 193.485 53.7177C193.848 52.9531 194.211 52.1888 194.575 51.4242C195.14 50.2356 193.767 48.5465 193.387 47.4109C192.996 46.2431 191.141 46.7442 191.535 47.9217Z" fill="black"/>
<path d="M201.669 60.0505C202.78 60.6069 203.907 61.0782 205.086 61.4729C204.863 61.2494 204.639 61.0259 204.415 60.8024C205.297 63.2807 206.178 65.7589 207.059 68.2371C207.217 68.6799 207.528 68.8907 207.985 68.9418C210.177 69.188 212.333 69.188 214.525 68.9418C214.982 68.8904 215.293 68.6799 215.451 68.2371C216.332 65.7589 217.213 63.2807 218.094 60.8024C217.871 61.0259 217.647 61.2494 217.424 61.4729C218.603 61.0782 219.73 60.6069 220.841 60.0505C220.518 60.0505 220.195 60.0505 219.872 60.0505C222.249 61.1807 224.626 62.3106 227.004 63.4408C227.433 63.6447 227.802 63.5829 228.167 63.2906C229.888 61.9154 231.417 60.3861 232.792 58.666C233.084 58.3008 233.146 57.9317 232.942 57.5023C231.812 55.1251 230.682 52.7478 229.552 50.3706C229.552 50.6936 229.552 51.0166 229.552 51.34C230.109 50.2285 230.58 49.1018 230.974 47.9228C230.751 48.1463 230.527 48.3698 230.304 48.5933C232.782 47.7119 235.26 46.8305 237.739 45.9495C238.182 45.7921 238.392 45.481 238.444 45.0236C238.69 42.8315 238.69 40.6758 238.444 38.4841C238.392 38.0271 238.182 37.7156 237.739 37.5582C235.261 36.6768 232.782 35.7954 230.304 34.9144C230.527 35.1379 230.751 35.3614 230.974 35.5849C230.58 34.4055 230.109 33.2788 229.552 32.1677C229.552 32.4907 229.552 32.8137 229.552 33.1371C230.682 30.7598 231.812 28.3826 232.942 26.0054C233.146 25.576 233.084 25.2073 232.792 24.8417C231.417 23.1216 229.888 21.5923 228.167 20.2171C227.802 19.9248 227.433 19.863 227.004 20.0669C224.627 21.1967 222.249 22.327 219.872 23.4569C220.195 23.4569 220.518 23.4569 220.841 23.4569C219.73 22.9004 218.603 22.4292 217.424 22.0347C217.647 22.2583 217.871 22.4818 218.094 22.7053C217.213 20.227 216.332 17.7488 215.451 15.2702C215.293 14.8274 214.982 14.6166 214.525 14.5655C212.333 14.3193 210.177 14.3193 207.985 14.5655C207.528 14.617 207.217 14.8274 207.059 15.2702C206.178 17.7484 205.296 20.2267 204.415 22.7053C204.639 22.4818 204.863 22.2583 205.086 22.0347C203.907 22.4295 202.78 22.9004 201.669 23.4572C201.992 23.4572 202.315 23.4572 202.638 23.4572C200.261 22.327 197.883 21.1972 195.506 20.0673C195.077 19.8634 194.708 19.9252 194.342 20.2175C192.622 21.5927 191.093 23.122 189.718 24.8421C189.426 25.2073 189.364 25.5764 189.568 26.0057C190.697 28.383 191.828 30.7602 192.958 33.1375C192.958 32.8145 192.958 32.4915 192.958 32.1681C192.401 33.2795 191.93 34.4063 191.535 35.5854C191.759 35.3618 191.982 35.1383 192.206 34.9148C189.728 35.7962 187.249 36.6776 184.771 37.5585C184.328 37.716 184.117 38.0271 184.066 38.4845C183.82 40.6766 183.82 42.8322 184.066 45.024C184.203 46.2402 186.125 46.2537 185.986 45.024C185.74 42.8318 185.74 40.6762 185.986 38.4845C185.751 38.7933 185.516 39.1016 185.282 39.4104C186.818 38.8639 188.354 38.3178 189.891 37.7713C190.719 37.4768 191.548 37.1818 192.377 36.8873C193.411 36.5194 193.469 35.8054 193.852 34.7869C194.228 33.7838 195.021 33.0215 194.527 31.9807C194.18 31.2503 193.832 30.5198 193.485 29.7894C192.732 28.2052 191.979 26.6206 191.226 25.0361C191.176 25.424 191.126 25.8118 191.076 26.1997C192.451 24.4796 193.98 22.9503 195.7 21.575C195.313 21.625 194.925 21.6753 194.537 21.7252C196.01 22.4257 197.484 23.1262 198.958 23.8267C199.753 24.2046 200.548 24.5825 201.343 24.9604C202.471 25.4969 203.157 24.8221 204.287 24.3509C205.171 23.9826 205.995 23.9796 206.336 23.0202C206.607 22.2587 206.878 21.4975 207.148 20.7359C207.736 19.0842 208.323 17.4324 208.91 15.7806C208.602 16.0156 208.293 16.2507 207.984 16.4853C210.176 16.2392 212.332 16.2392 214.524 16.4853C214.216 16.2503 213.907 16.0152 213.598 15.7806C214.144 17.3168 214.691 18.8533 215.237 20.3895C215.532 21.2183 215.827 22.0471 216.121 22.8758C216.489 23.9101 217.203 23.968 218.221 24.3505C219.225 24.7273 219.987 25.5203 221.028 25.0257C221.758 24.6785 222.489 24.3313 223.219 23.9842C224.804 23.2311 226.388 22.4779 227.972 21.7248C227.584 21.6749 227.197 21.6246 226.809 21.5747C228.529 22.9499 230.058 24.4792 231.433 26.1993C231.383 25.8114 231.333 25.4235 231.283 25.0356C230.583 26.5092 229.882 27.9832 229.182 29.4568C228.804 30.2518 228.426 31.0467 228.048 31.8417C227.512 32.9704 228.187 33.6563 228.657 34.7861C229.026 35.6698 229.029 36.494 229.988 36.835C230.75 37.1057 231.511 37.3765 232.272 37.6472C233.924 38.2348 235.576 38.822 237.228 39.4092C236.993 39.1005 236.758 38.7921 236.523 38.4833C236.77 40.6754 236.77 42.8311 236.523 45.0228C236.758 44.7141 236.993 44.4057 237.228 44.0969C235.692 44.6434 234.155 45.1895 232.619 45.736C231.79 46.0305 230.961 46.3255 230.133 46.62C229.098 46.988 229.04 47.7019 228.658 48.7204C228.281 49.7235 227.488 50.4858 227.983 51.5266C228.33 52.257 228.677 52.9875 229.024 53.718C229.777 55.3021 230.53 56.8867 231.284 58.4712C231.333 58.0834 231.383 57.6955 231.434 57.3076C230.058 59.0278 228.529 60.557 226.809 61.9323C227.197 61.8824 227.585 61.8321 227.973 61.7821C226.499 61.0816 225.025 60.3811 223.552 59.6806C222.757 59.3027 221.962 58.9248 221.167 58.5469C220.038 58.0104 219.352 58.6852 218.222 59.1564C217.339 59.5247 216.514 59.5278 216.173 60.4871C215.903 61.2487 215.632 62.0098 215.361 62.7714C214.773 64.4232 214.186 66.075 213.599 67.7267C213.908 67.4917 214.216 67.2566 214.525 67.022C212.333 67.2682 210.177 67.2682 207.985 67.022C208.294 67.257 208.603 67.4921 208.911 67.7267C208.324 66.075 207.737 64.4232 207.15 62.7718C206.866 61.9749 206.583 61.178 206.299 60.3811C205.876 59.1921 203.637 58.8929 202.639 58.3929C201.534 57.8395 200.561 59.4959 201.669 60.0505Z" fill="black"/>
<path d="M224.882 36.559C227.443 43.8839 224.266 51.6665 217.278 55.0338C210.739 58.1845 202.79 55.4525 198.93 49.5359C194.994 43.5049 196.47 35.496 201.674 30.7665C207.724 25.2682 217.182 26.438 222.42 32.378C223.24 33.3085 224.593 31.9452 223.778 31.02C218.05 24.5254 207.952 23.2888 201.083 28.7757C194.65 33.9149 192.976 42.9254 197.012 50.0782C201.032 57.2006 210.099 60.0045 217.557 56.9929C225.756 53.6824 229.604 44.2603 226.734 36.049C226.327 34.8873 224.472 35.3869 224.882 36.559Z" fill="black"/>
<path d="M207.613 37.5373L209.989 46.0362H208.276L207.668 43.7926H205.391L204.806 46.0362H203.148L205.557 37.5373H207.613ZM205.624 42.5548H207.436L206.928 40.6208C206.795 40.0904 206.651 39.4053 206.541 38.8857H206.508C206.397 39.4161 206.254 40.1123 206.132 40.6096L205.624 42.5548Z" fill="#516FFA"/>
<path d="M211.095 46.0337V37.6455C211.626 37.546 212.355 37.4688 213.294 37.4688C214.366 37.4688 215.173 37.6785 215.714 38.1428C216.223 38.5737 216.533 39.2588 216.533 40.0438C216.533 42.3757 214.588 42.8953 213.317 42.8953C213.085 42.8953 212.885 42.8842 212.72 42.8512V46.0341H211.095V46.0337ZM212.72 41.5688C212.875 41.6023 213.052 41.613 213.295 41.613C214.311 41.613 214.908 41.0381 214.908 40.121C214.908 39.2146 214.334 38.7396 213.428 38.7396C213.096 38.7396 212.864 38.773 212.72 38.8057V41.5688H212.72Z" fill="#516FFA"/>
<path d="M217.726 46.0333V37.5344H219.362V46.0333H217.726Z" fill="#516FFA"/>
<path d="M330.758 28.4238L353.899 41.7843V68.5049L330.758 55.1448V28.4238Z" fill="white"/>
<path d="M330.274 29.2541C337.987 33.7075 345.701 38.1612 353.415 42.6146C353.256 42.3385 353.098 42.062 352.939 41.7855C352.939 50.6926 352.939 59.5993 352.939 68.5061C353.421 68.2296 353.902 67.9534 354.384 67.6769C346.67 63.2235 338.956 58.7702 331.243 54.3164C331.401 54.5929 331.56 54.8691 331.718 55.1456C331.718 46.2388 331.718 37.3317 331.718 28.425C331.718 27.1868 329.798 27.1868 329.798 28.425C329.798 37.2733 329.798 46.1213 329.798 54.9697C329.798 55.9981 330.957 56.3691 331.722 56.8108C333.849 58.039 335.976 59.2671 338.103 60.4949C342.832 63.2251 347.561 65.9557 352.29 68.6858C352.665 68.9024 353.04 69.1186 353.415 69.3352C354.044 69.6989 354.859 69.2369 354.859 68.5061C354.859 59.6577 354.859 50.8097 354.859 41.9614C354.859 40.9325 353.701 40.5619 352.936 40.1202C350.808 38.8921 348.682 37.6639 346.554 36.4361C341.826 33.706 337.096 30.9754 332.367 28.2453C331.993 28.029 331.618 27.8124 331.243 27.5962C330.168 26.9756 329.202 28.6354 330.274 29.2541Z" fill="black"/>
<path d="M372.362 57.8472L377.04 55.1466V28.4256L353.899 41.7861V68.5067L367.691 60.5443" fill="white"/>
<path d="M372.847 58.6762C374.121 57.9404 375.396 57.2045 376.67 56.4687C377.375 56.062 378 55.7997 378 54.8949C378 52.2054 378 49.5156 378 46.8261C378 40.693 378 34.5594 378 28.4263C378 27.6954 377.185 27.2334 376.555 27.5971C368.892 32.0213 361.23 36.4454 353.567 40.8692C352.681 41.3808 352.939 42.5806 352.939 43.4585C352.939 45.9148 352.939 48.3708 352.939 50.8271C352.939 56.2875 352.939 61.7482 352.939 67.2085C352.939 67.6413 352.939 68.0741 352.939 68.507C352.939 69.2378 353.754 69.6998 354.384 69.3361C358.981 66.682 363.578 64.0278 368.175 61.3733C369.247 60.7546 368.281 59.0952 367.206 59.7154C362.609 62.3695 358.012 65.0237 353.414 67.6782C353.896 67.9547 354.377 68.2308 354.859 68.5073C354.859 59.6002 354.859 50.6935 354.859 41.7867C354.7 42.0632 354.542 42.3394 354.384 42.6159C362.097 38.1625 369.811 33.7091 377.524 29.2554C377.043 28.9793 376.561 28.7028 376.08 28.4263C376.08 37.333 376.08 46.2401 376.08 55.1468C376.238 54.8707 376.397 54.5942 376.555 54.3177C374.996 55.2179 373.437 56.1181 371.878 57.0183C370.806 57.637 371.773 59.2964 372.847 58.6762Z" fill="black"/>
<path d="M340.614 22.7358L353.899 15.0657L377.04 28.4258L353.899 41.7863L330.758 28.4258L335.662 25.5942" fill="white"/>
<path d="M341.098 23.5643C345.527 21.0077 349.955 18.4508 354.384 15.8942C354.061 15.8942 353.738 15.8942 353.414 15.8942C361.128 20.3476 368.842 24.8009 376.555 29.2547C376.555 28.7021 376.555 28.1494 376.555 27.5968C368.842 32.0501 361.128 36.5035 353.414 40.9573C353.737 40.9573 354.061 40.9573 354.384 40.9573C346.67 36.5039 338.956 32.0505 331.243 27.5968C331.243 28.1494 331.243 28.7021 331.243 29.2547C332.877 28.3107 334.512 27.3671 336.147 26.4231C337.219 25.8044 336.252 24.145 335.178 24.7652C333.543 25.7092 331.908 26.6528 330.273 27.5968C329.65 27.9562 329.65 28.8952 330.273 29.2547C337.936 33.6789 345.599 38.1031 353.262 42.5273C354.157 43.0438 355.062 42.2235 355.831 41.7791C357.959 40.551 360.085 39.3228 362.213 38.095C366.942 35.3648 371.67 32.6343 376.4 29.9041C376.774 29.6879 377.149 29.4713 377.524 29.2547C378.147 28.8952 378.147 27.9562 377.524 27.5968C369.811 23.1434 362.097 18.6897 354.383 14.2363C354.084 14.0635 353.713 14.0635 353.414 14.2363C348.985 16.7929 344.557 19.3498 340.129 21.9064C339.058 22.5251 340.024 24.1845 341.098 23.5643Z" fill="black"/>
<path d="M341.328 45.5842C339.943 44.7842 338.816 45.4263 338.812 47.0181C338.807 48.61 339.927 50.5486 341.312 51.3486C342.697 52.1486 343.824 51.5065 343.828 49.9146C343.833 48.3228 342.714 46.3841 341.328 45.5842Z" fill="#516FFA"/>
<path d="M360.505 28.662C359.12 27.862 356.881 27.862 355.505 28.662C354.128 29.4619 354.133 30.7599 355.519 31.5599C356.904 32.3599 359.145 32.3584 360.521 31.5584C361.898 30.7584 361.891 29.4615 360.505 28.662Z" fill="#516FFA"/>
<path d="M353.559 24.6506C352.174 23.8507 349.935 23.8507 348.559 24.6506C347.182 25.4506 347.187 26.7486 348.573 27.5486C349.958 28.3485 352.199 28.347 353.575 27.5471C354.952 26.7471 354.945 25.4502 353.559 24.6506Z" fill="#516FFA"/>
<path d="M366.326 45.8762C365.096 46.5862 364.102 48.3075 364.107 49.7208C364.11 51.1341 365.111 51.7044 366.341 50.9939C367.571 50.2838 368.565 48.5625 368.561 47.1492C368.557 45.736 367.556 45.1661 366.326 45.8762Z" fill="#516FFA"/>
<path d="M370.33 38.9646C369.1 39.6747 368.106 41.396 368.11 42.8093C368.114 44.2226 369.114 44.7929 370.344 44.0824C371.574 43.3723 372.568 41.651 372.564 40.2377C372.56 38.8245 371.56 38.2545 370.33 38.9646Z" fill="#516FFA"/>
<path d="M362.303 52.8495C361.073 53.5596 360.079 55.2809 360.083 56.6941C360.087 58.1074 361.088 58.6774 362.318 57.9673C363.548 57.2572 364.542 55.5358 364.537 54.1226C364.534 52.7093 363.533 52.1394 362.303 52.8495Z" fill="#516FFA"/>
<path d="M226.312 53.8165C226.846 55.0327 227.379 56.2486 227.913 57.4649C228.285 58.3136 229.525 57.5801 229.156 56.7379C228.623 55.5217 228.089 54.3058 227.556 53.0895C227.183 52.2408 225.943 52.9747 226.312 53.8165Z" fill="#516FFA"/>
<path d="M230.608 39.7777C231.85 40.2478 233.092 40.7179 234.334 41.1879C235.205 41.5174 235.577 40.1245 234.717 39.7992C233.475 39.3292 232.233 38.8591 230.991 38.389C230.121 38.0599 229.748 39.4524 230.608 39.7777Z" fill="#516FFA"/>
<path d="M338.186 25.0445C338.696 25.0445 339.108 24.6318 339.108 24.1228C339.108 23.6138 338.696 23.2011 338.186 23.2011C337.677 23.2011 337.265 23.6138 337.265 24.1228C337.265 24.6318 337.677 25.0445 338.186 25.0445Z" fill="#516FFA"/>
<path d="M224.541 34.7973C225.05 34.7973 225.463 34.3846 225.463 33.8756C225.463 33.3666 225.05 32.9539 224.541 32.9539C224.032 32.9539 223.62 33.3666 223.62 33.8756C223.62 34.3846 224.032 34.7973 224.541 34.7973Z" fill="#516FFA"/>
<path d="M155.198 31.6838C155.707 31.6838 156.12 31.2711 156.12 30.7621C156.12 30.253 155.707 29.8404 155.198 29.8404C154.689 29.8404 154.276 30.253 154.276 30.7621C154.276 31.2711 154.689 31.6838 155.198 31.6838Z" fill="#516FFA"/>
<path d="M82.0537 24.3753C77.4533 32.4733 72.8528 40.5712 68.252 48.6687C68.6898 48.5539 69.1277 48.4391 69.5658 48.3243C62.2548 44.0618 54.9434 39.7993 47.6323 35.5368C47.1642 35.2637 46.6038 35.4427 46.3188 35.8813C41.2587 43.6681 36.199 51.455 31.1392 59.2419C30.7367 59.8617 31.2667 60.6866 31.9683 60.6866C49.4008 60.6866 66.8333 60.6866 84.2662 60.6866C84.2969 60.6866 84.3273 60.6866 84.358 60.6866C85.5961 60.6866 85.5961 58.7664 84.358 58.7664C66.9255 58.7664 49.493 58.7664 32.0601 58.7664C32.0294 58.7664 31.9987 58.7664 31.9679 58.7664C32.2444 59.248 32.5205 59.7296 32.7971 60.2112C37.8572 52.4243 42.917 44.6375 47.9768 36.8506C47.539 36.9654 47.1007 37.0802 46.6629 37.1951C53.974 41.4576 61.2854 45.7201 68.5965 49.9826C69.0443 50.2437 69.6515 50.0932 69.9099 49.6381C74.5104 41.5401 79.1112 33.4422 83.7117 25.3446C84.3246 24.2662 82.6655 23.2989 82.0537 24.3753Z" fill="black"/>
<path d="M72.847 30.0146C76.881 27.7326 80.915 25.4502 84.949 23.1682C84.4674 22.8921 83.9858 22.6156 83.5042 22.3391C83.4635 26.9738 83.4231 31.6084 83.3824 36.243C83.3717 37.4816 85.2919 37.4808 85.3026 36.243C85.3433 31.6084 85.3837 26.9738 85.4244 22.3391C85.431 21.6018 84.6068 21.1555 83.9797 21.5099C79.9457 23.7919 75.9116 26.0743 71.8776 28.3563C70.8 28.9662 71.7678 30.6252 72.847 30.0146Z" fill="black"/>
<path d="M47.1476 40.4403C49.3978 40.4403 51.2219 38.6162 51.2219 36.366C51.2219 34.1158 49.3978 32.2917 47.1476 32.2917C44.8974 32.2917 43.0733 34.1158 43.0733 36.366C43.0733 38.6162 44.8974 40.4403 47.1476 40.4403Z" fill="white"/>
<path d="M50.2622 36.3661C50.046 40.3805 44.2496 40.3805 44.0334 36.3661C43.8168 32.349 50.0468 32.3705 50.2622 36.3661C50.3287 37.5977 52.2493 37.6039 52.1824 36.3661C52.0292 33.5184 49.9954 31.4849 47.1481 31.3317C44.3065 31.1788 42.2545 33.7492 42.1132 36.3661C41.9604 39.2077 44.5308 41.2596 47.1481 41.4005C49.9896 41.5534 52.0415 38.983 52.1824 36.3661C52.2489 35.128 50.3283 35.1345 50.2622 36.3661Z" fill="black"/>
<path d="M69.0811 53.2285C71.3313 53.2285 73.1554 51.4044 73.1554 49.1542C73.1554 46.904 71.3313 45.0799 69.0811 45.0799C66.8309 45.0799 65.0068 46.904 65.0068 49.1542C65.0068 51.4044 66.8309 53.2285 69.0811 53.2285Z" fill="white"/>
<path d="M72.1958 49.1543C71.9796 53.1687 66.1832 53.1687 65.967 49.1543C65.7508 45.1376 71.9803 45.1587 72.1958 49.1543C72.2622 50.3859 74.1828 50.392 74.116 49.1543C73.9628 46.3066 71.9288 44.2731 69.0815 44.1198C66.24 43.967 64.1881 46.5374 64.0471 49.1543C63.8943 51.9958 66.4646 54.0478 69.0815 54.1887C71.9231 54.3415 73.9751 51.7711 74.116 49.1543C74.1824 47.9165 72.2618 47.9226 72.1958 49.1543Z" fill="black"/>
<path d="M47.1476 38.284C48.2071 38.284 49.0659 37.4252 49.0659 36.3657C49.0659 35.3063 48.2071 34.4474 47.1476 34.4474C46.0882 34.4474 45.2293 35.3063 45.2293 36.3657C45.2293 37.4252 46.0882 38.284 47.1476 38.284Z" fill="#516FFA"/>
<path d="M69.081 51.0721C70.1404 51.0721 70.9993 50.2133 70.9993 49.1538C70.9993 48.0944 70.1404 47.2355 69.081 47.2355C68.0215 47.2355 67.1627 48.0944 67.1627 49.1538C67.1627 50.2133 68.0215 51.0721 69.081 51.0721Z" fill="#516FFA"/>
<path d="M307.972 60.657H258.812V66.7361H307.972V60.657Z" fill="white"/>
<path d="M307.973 65.8239C291.597 65.8239 275.22 65.8239 258.844 65.8239C258.834 65.8239 258.823 65.8239 258.812 65.8239C259.116 66.1277 259.42 66.4319 259.724 66.7357C259.724 64.7094 259.724 62.6828 259.724 60.6565C259.42 60.9603 259.116 61.2645 258.812 61.5683C275.188 61.5683 291.564 61.5683 307.941 61.5683C307.951 61.5683 307.962 61.5683 307.973 61.5683C307.669 61.2645 307.365 60.9603 307.061 60.6565C307.061 62.6828 307.061 64.7094 307.061 66.7357C307.061 67.9115 308.884 67.9115 308.884 66.7357C308.884 64.7094 308.884 62.6828 308.884 60.6565C308.884 60.1594 308.47 59.7448 307.973 59.7448C291.597 59.7448 275.22 59.7448 258.844 59.7448C258.834 59.7448 258.823 59.7448 258.812 59.7448C258.315 59.7448 257.9 60.1594 257.9 60.6565C257.9 62.6828 257.9 64.7094 257.9 66.7357C257.9 67.2328 258.315 67.6474 258.812 67.6474C275.188 67.6474 291.564 67.6474 307.941 67.6474C307.951 67.6474 307.962 67.6474 307.973 67.6474C309.148 67.6474 309.148 65.8239 307.973 65.8239Z" fill="black"/>
<path d="M305.237 54.4591H261.547V60.5383H305.237V54.4591Z" fill="white"/>
<path d="M305.237 59.6259C290.674 59.6259 276.11 59.6259 261.547 59.6259C261.851 59.9297 262.155 60.2339 262.459 60.5377C262.459 58.5114 262.459 56.4848 262.459 54.4585C262.155 54.7623 261.851 55.0665 261.547 55.3703C276.11 55.3703 290.674 55.3703 305.237 55.3703C304.933 55.0665 304.629 54.7623 304.325 54.4585C304.325 56.4848 304.325 58.5114 304.325 60.5377C304.325 61.7135 306.149 61.7135 306.149 60.5377C306.149 58.5114 306.149 56.4848 306.149 54.4585C306.149 53.9614 305.734 53.5468 305.237 53.5468C290.674 53.5468 276.11 53.5468 261.547 53.5468C261.05 53.5468 260.635 53.9614 260.635 54.4585C260.635 56.4848 260.635 58.5114 260.635 60.5377C260.635 61.0348 261.05 61.4494 261.547 61.4494C276.11 61.4494 290.674 61.4494 305.237 61.4494C306.413 61.4494 306.413 59.6259 305.237 59.6259Z" fill="black"/>
<path d="M258.832 36.7937H307.992V31.4866L283.412 13.8176L258.832 31.4866V36.7937Z" fill="white"/>
<path d="M258.83 37.7041C275.206 37.7041 291.583 37.7041 307.959 37.7041C307.969 37.7041 307.98 37.7041 307.99 37.7041C308.487 37.7041 308.902 37.2894 308.902 36.7923C308.902 35.1774 308.902 33.5629 308.902 31.948C308.902 31.0851 308.555 30.7733 307.913 30.312C305.302 28.4352 302.691 26.5585 300.081 24.6817C294.677 20.7977 289.274 16.9132 283.871 13.0292C283.631 12.8567 283.19 12.8567 282.95 13.0292C277.641 16.8458 272.332 20.6624 267.023 24.479C264.35 26.3998 261.679 28.3203 259.006 30.2412C258.419 30.6635 257.919 30.9403 257.919 31.7547C257.919 33.4338 257.919 35.1132 257.919 36.7923C257.919 37.9681 259.742 37.9681 259.742 36.7923C259.742 35.0235 259.742 33.2543 259.742 31.4855C259.592 31.7481 259.442 32.0104 259.291 32.2729C267.484 26.383 275.678 20.4935 283.871 14.6036C283.564 14.6036 283.258 14.6036 282.951 14.6036C291.144 20.4935 299.338 26.383 307.531 32.2729C307.38 32.0104 307.23 31.7481 307.079 31.4855C307.079 33.2543 307.079 35.0235 307.079 36.7923C307.383 36.4885 307.687 36.1843 307.991 35.8806C291.615 35.8806 275.239 35.8806 258.863 35.8806C258.852 35.8806 258.842 35.8806 258.831 35.8806C257.654 35.8806 257.654 37.7041 258.83 37.7041Z" fill="black"/>
<path d="M268.681 36.869H264.213V54.2834H268.681V36.869Z" fill="white"/>
<path d="M268.681 53.3734C267.192 53.3734 265.703 53.3734 264.214 53.3734C264.518 53.6772 264.822 53.9814 265.126 54.2852C265.126 48.4803 265.126 42.6757 265.126 36.8708C264.822 37.1746 264.518 37.4787 264.214 37.7825C265.703 37.7825 267.192 37.7825 268.681 37.7825C268.378 37.4787 268.073 37.1746 267.77 36.8708C267.77 42.6757 267.77 48.4803 267.77 54.2852C267.77 55.461 269.593 55.461 269.593 54.2852C269.593 48.4803 269.593 42.6757 269.593 36.8708C269.593 36.3737 269.178 35.959 268.681 35.959C267.192 35.959 265.703 35.959 264.214 35.959C263.717 35.959 263.302 36.3737 263.302 36.8708C263.302 42.6757 263.302 48.4803 263.302 54.2852C263.302 54.7823 263.717 55.1969 264.214 55.1969C265.703 55.1969 267.192 55.1969 268.681 55.1969C269.858 55.1969 269.858 53.3734 268.681 53.3734Z" fill="black"/>
<path d="M279.981 36.869H275.514V54.2834H279.981V36.869Z" fill="white"/>
<path d="M279.981 53.3735C278.492 53.3735 277.003 53.3735 275.514 53.3735C275.818 53.6773 276.122 53.9814 276.426 54.2852C276.426 48.4803 276.426 42.6757 276.426 36.8708C276.122 37.1746 275.818 37.4788 275.514 37.7825C277.003 37.7825 278.492 37.7825 279.981 37.7825C279.678 37.4788 279.373 37.1746 279.07 36.8708C279.07 42.6757 279.07 48.4803 279.07 54.2852C279.07 55.461 280.893 55.461 280.893 54.2852C280.893 48.4803 280.893 42.6757 280.893 36.8708C280.893 36.3737 280.478 35.959 279.981 35.959C278.492 35.959 277.003 35.959 275.514 35.959C275.017 35.959 274.602 36.3737 274.602 36.8708C274.602 42.6757 274.602 48.4803 274.602 54.2852C274.602 54.7823 275.017 55.197 275.514 55.197C277.003 55.197 278.492 55.197 279.981 55.197C281.157 55.197 281.157 53.3735 279.981 53.3735Z" fill="black"/>
<path d="M291.287 36.869H286.819V54.2834H291.287V36.869Z" fill="white"/>
<path d="M291.287 53.3735C289.798 53.3735 288.309 53.3735 286.82 53.3735C287.124 53.6773 287.428 53.9814 287.732 54.2852C287.732 48.4803 287.732 42.6757 287.732 36.8708C287.428 37.1746 287.124 37.4788 286.82 37.7825C288.309 37.7825 289.798 37.7825 291.287 37.7825C290.984 37.4788 290.679 37.1746 290.376 36.8708C290.376 42.6757 290.376 48.4803 290.376 54.2852C290.376 55.461 292.199 55.461 292.199 54.2852C292.199 48.4803 292.199 42.6757 292.199 36.8708C292.199 36.3737 291.784 35.959 291.287 35.959C289.798 35.959 288.309 35.959 286.82 35.959C286.323 35.959 285.908 36.3737 285.908 36.8708C285.908 42.6757 285.908 48.4803 285.908 54.2852C285.908 54.7823 286.323 55.197 286.82 55.197C288.309 55.197 289.798 55.197 291.287 55.197C292.463 55.197 292.463 53.3735 291.287 53.3735Z" fill="black"/>
<path d="M302.57 36.869H298.102V54.2834H302.57V36.869Z" fill="white"/>
<path d="M302.57 53.3735C301.081 53.3735 299.591 53.3735 298.102 53.3735C298.406 53.6773 298.71 53.9814 299.014 54.2852C299.014 48.4803 299.014 42.6757 299.014 36.8708C298.71 37.1746 298.406 37.4788 298.102 37.7825C299.591 37.7825 301.081 37.7825 302.57 37.7825C302.266 37.4788 301.962 37.1746 301.658 36.8708C301.658 42.6757 301.658 48.4803 301.658 54.2852C301.658 55.461 303.481 55.461 303.481 54.2852C303.481 48.4803 303.481 42.6757 303.481 36.8708C303.481 36.3737 303.067 35.959 302.57 35.959C301.081 35.959 299.591 35.959 298.102 35.959C297.605 35.959 297.19 36.3737 297.19 36.8708C297.19 42.6757 297.19 48.4803 297.19 54.2852C297.19 54.7823 297.605 55.197 298.102 55.197C299.591 55.197 301.081 55.197 302.57 55.197C303.746 55.197 303.746 53.3735 302.57 53.3735Z" fill="black"/>
<path d="M259.289 32.6701C269.947 32.6701 280.604 32.6701 291.262 32.6701C292.437 32.6701 292.437 30.8466 291.262 30.8466C280.604 30.8466 269.947 30.8466 259.289 30.8466C258.114 30.8466 258.114 32.6701 259.289 32.6701Z" fill="black"/>
<path d="M297.705 32.6701C301.068 32.6701 304.432 32.6701 307.795 32.6701C308.971 32.6701 308.971 30.8466 307.795 30.8466C304.432 30.8466 301.068 30.8466 297.705 30.8466C296.529 30.8466 296.529 32.6701 297.705 32.6701Z" fill="black"/>
<path d="M294.43 32.5567C294.914 32.5567 295.306 32.1649 295.306 31.6815C295.306 31.1981 294.914 30.8062 294.43 30.8062C293.947 30.8062 293.555 31.1981 293.555 31.6815C293.555 32.1649 293.947 32.5567 294.43 32.5567Z" fill="#516FFA"/>
<path d="M302.264 58.2243C302.747 58.2243 303.139 57.8324 303.139 57.349C303.139 56.8656 302.747 56.4738 302.264 56.4738C301.78 56.4738 301.388 56.8656 301.388 57.349C301.388 57.8324 301.78 58.2243 302.264 58.2243Z" fill="#516FFA"/>
<path d="M299.285 58.2243C299.769 58.2243 300.161 57.8324 300.161 57.349C300.161 56.8656 299.769 56.4738 299.285 56.4738C298.802 56.4738 298.41 56.8656 298.41 57.349C298.41 57.8324 298.802 58.2243 299.285 58.2243Z" fill="#516FFA"/>
<circle cx="283.159" cy="19.2378" r="7.4878" fill="white" stroke="black" stroke-width="1.5"/>
<path d="M284.573 16.8645C284.312 16.7342 283.887 16.5517 283.383 16.5517C282.801 16.5517 282.506 16.9079 282.506 17.2467C282.506 17.6462 282.879 17.8894 283.566 18.2282C284.591 18.6885 285.06 19.175 285.06 20.0784C285.06 20.9645 284.487 21.6768 283.505 21.8679V22.9279H282.653V21.9375C282.098 21.9201 281.533 21.7464 281.203 21.5554L281.463 20.5823C281.802 20.7822 282.315 20.9733 282.862 20.9733C283.488 20.9733 283.792 20.6345 283.792 20.2002C283.792 19.7573 283.505 19.4705 282.706 19.1231C281.863 18.7236 281.264 18.2716 281.264 17.3944C281.264 16.5429 281.811 15.8827 282.732 15.6745V14.6841H283.583V15.6049C284.139 15.6223 284.547 15.7701 284.834 15.9178L284.573 16.8645Z" fill="#516FFA"/>
</svg>
