<svg width="182" height="32" viewBox="0 0 182 32" fill="none" xmlns="http://www.w3.org/2000/svg">
<path d="M15.9305 0C7.13218 0 0 7.11708 0 15.8968C0 24.6765 7.13218 31.7935 15.9305 31.7935C24.7288 31.7935 31.861 24.6765 31.861 15.8968C31.861 7.11723 24.7287 0 15.9305 0ZM22.482 22.5363L15.8257 26.3776V26.379H15.8229L9.16246 22.5363V9.24353L9.16935 9.24766L15.8202 5.41454L20.089 7.79148H20.0904V13.7923L18.0132 12.6018V8.98753L15.8229 7.74194L11.2383 10.3873V21.4063L15.8229 24.0516L20.4076 21.4145L20.4297 16.8864L13.9154 13.1152L16.0078 12.0169L22.4986 15.7935L22.482 22.5376V22.5363ZM17.0781 15.4646L18.6821 16.3854L13.9154 19.094V13.6327L15.5898 14.6182V16.2574L17.0794 15.4646H17.0781Z" fill="white"/>
<path d="M42.0179 7.25601H48.1088C48.6973 7.25601 49.2784 7.32574 49.8522 7.46521C50.4259 7.60468 50.9372 7.83223 51.3859 8.14788C51.8346 8.46352 52.1988 8.87091 52.4783 9.37007C52.7578 9.86923 52.8976 10.4711 52.8976 11.1758C52.8976 12.0567 52.6475 12.7834 52.1473 13.356C51.647 13.9285 50.9924 14.3396 50.1832 14.5892V14.6332C50.6687 14.6919 51.1211 14.8277 51.5404 15.0406C51.9597 15.2535 52.3165 15.5251 52.6107 15.8554C52.9049 16.1857 53.1367 16.5674 53.3058 17.0005C53.475 17.4336 53.5596 17.8997 53.5596 18.3989C53.5596 19.2504 53.3904 19.9587 53.0521 20.524C52.7137 21.0892 52.2686 21.5443 51.7169 21.8893C51.1652 22.2343 50.5326 22.4802 49.8191 22.627C49.1055 22.7738 48.381 22.8472 47.6453 22.8472H42.0179V7.25601ZM44.7985 13.5982H47.3364C48.2633 13.5982 48.9584 13.4184 49.4218 13.0587C49.8853 12.699 50.117 12.2255 50.117 11.6383C50.117 10.963 49.8779 10.4601 49.3998 10.1298C48.9216 9.79949 48.1529 9.63433 47.0936 9.63433H44.7985V13.5982ZM44.7985 20.4689H47.3585C47.7115 20.4689 48.0904 20.4469 48.495 20.4028C48.8996 20.3588 49.271 20.256 49.6094 20.0945C49.9478 19.9331 50.2273 19.7018 50.448 19.4009C50.6687 19.0999 50.779 18.6925 50.779 18.1787C50.779 17.3565 50.5105 16.784 49.9735 16.461C49.4365 16.138 48.6016 15.9765 47.4688 15.9765H44.7985V20.4689ZM62.3649 21.3938H62.2987C61.9161 21.9957 61.4306 22.4325 60.8422 22.7041C60.2537 22.9757 59.6063 23.1115 58.9001 23.1115C58.4146 23.1115 57.9402 23.0454 57.4767 22.9133C57.0133 22.7812 56.6014 22.583 56.2409 22.3187C55.8805 22.0545 55.5899 21.7241 55.3692 21.3278C55.1485 20.9314 55.0382 20.4689 55.0382 19.9404C55.0382 19.3678 55.1412 18.8797 55.3472 18.476C55.5531 18.0722 55.829 17.7346 56.1747 17.463C56.5205 17.1914 56.9214 16.9748 57.3774 16.8133C57.8335 16.6518 58.308 16.5307 58.8008 16.45C59.2937 16.3692 59.7902 16.3179 60.2905 16.2958C60.7907 16.2738 61.2614 16.2628 61.7028 16.2628H62.3649V15.9765C62.3649 15.3159 62.1368 14.8204 61.6807 14.4901C61.2247 14.1597 60.6435 13.9946 59.9374 13.9946C59.3783 13.9946 58.856 14.0937 58.3705 14.2919C57.885 14.4901 57.4657 14.758 57.1126 15.0957L55.7223 13.7083C56.3108 13.1064 56.9986 12.6733 57.7857 12.409C58.5728 12.1448 59.3856 12.0127 60.2242 12.0127C60.9746 12.0127 61.6072 12.0971 62.1221 12.2659C62.637 12.4347 63.0637 12.6513 63.4021 12.9155C63.7404 13.1798 64.0016 13.4844 64.1855 13.8294C64.3694 14.1744 64.5018 14.5231 64.5827 14.8754C64.6636 15.2278 64.7115 15.5691 64.7262 15.8994C64.7409 16.2298 64.7482 16.5197 64.7482 16.7693V22.8472H62.3649V21.3938ZM62.2104 18.1126H61.6587C61.2909 18.1126 60.8789 18.1273 60.4229 18.1567C59.9668 18.186 59.5365 18.2557 59.1319 18.3659C58.7273 18.476 58.3852 18.6375 58.1057 18.8503C57.8262 19.0632 57.6864 19.3605 57.6864 19.7422C57.6864 19.9918 57.7416 20.201 57.8519 20.3698C57.9622 20.5386 58.1057 20.6818 58.2822 20.7992C58.4588 20.9167 58.6574 21.0011 58.8781 21.0525C59.0988 21.1039 59.3194 21.1296 59.5401 21.1296C60.4523 21.1296 61.1254 20.913 61.5594 20.4799C61.9934 20.0468 62.2104 19.4559 62.2104 18.7072V18.1126ZM67.264 12.2769H69.7798V13.9726H69.8239C70.074 13.444 70.4566 12.9853 70.9715 12.5962C71.4864 12.2072 72.1852 12.0127 73.068 12.0127C73.7742 12.0127 74.3737 12.1301 74.8665 12.365C75.3594 12.5999 75.7603 12.9082 76.0692 13.2899C76.3782 13.6716 76.5989 14.112 76.7313 14.6112C76.8637 15.1103 76.9299 15.6315 76.9299 16.1747V22.8472H74.2817V17.496C74.2817 17.2024 74.267 16.8757 74.2376 16.5161C74.2082 16.1564 74.1309 15.8187 74.0059 15.5031C73.8808 15.1874 73.6859 14.9232 73.4211 14.7103C73.1562 14.4974 72.7958 14.391 72.3397 14.391C71.8983 14.391 71.5269 14.4644 71.2253 14.6112C70.9237 14.758 70.6736 14.9562 70.4749 15.2058C70.2763 15.4553 70.1329 15.7416 70.0446 16.0646C69.9563 16.3876 69.9122 16.7253 69.9122 17.0776V22.8472H67.264V12.2769ZM87.9861 21.2617H87.942C87.5594 21.9077 87.0445 22.3774 86.3972 22.6711C85.7498 22.9647 85.051 23.1115 84.3007 23.1115C83.4768 23.1115 82.7449 22.9684 82.1049 22.6821C81.4649 22.3958 80.9169 22.0031 80.4608 21.5039C80.0047 21.0048 79.659 20.4175 79.4236 19.7422C79.1882 19.0669 79.0705 18.3402 79.0705 17.5621C79.0705 16.784 79.1956 16.0573 79.4457 15.3819C79.6958 14.7066 80.0452 14.1194 80.4939 13.6202C80.9426 13.1211 81.4833 12.7284 82.1159 12.4421C82.7486 12.1558 83.44 12.0127 84.1904 12.0127C84.6906 12.0127 85.1319 12.064 85.5145 12.1668C85.897 12.2696 86.2353 12.4017 86.5296 12.5632C86.8238 12.7247 87.0739 12.8972 87.2799 13.0807C87.4859 13.2642 87.6551 13.444 87.7875 13.6202H87.8537V6.19897H90.5019V22.8472H87.9861V21.2617ZM81.7187 17.5621C81.7187 17.9731 81.7886 18.3695 81.9284 18.7512C82.0681 19.1329 82.2741 19.4706 82.5463 19.7642C82.8184 20.0578 83.1458 20.2927 83.5283 20.4689C83.9108 20.6451 84.3448 20.7332 84.8303 20.7332C85.3158 20.7332 85.7498 20.6451 86.1324 20.4689C86.5149 20.2927 86.8422 20.0578 87.1144 19.7642C87.3866 19.4706 87.5925 19.1329 87.7323 18.7512C87.8721 18.3695 87.942 17.9731 87.942 17.5621C87.942 17.151 87.8721 16.7546 87.7323 16.3729C87.5925 15.9912 87.3866 15.6535 87.1144 15.3599C86.8422 15.0663 86.5149 14.8314 86.1324 14.6552C85.7498 14.4791 85.3158 14.391 84.8303 14.391C84.3448 14.391 83.9108 14.4791 83.5283 14.6552C83.1458 14.8314 82.8184 15.0663 82.5463 15.3599C82.2741 15.6535 82.0681 15.9912 81.9284 16.3729C81.7886 16.7546 81.7187 17.151 81.7187 17.5621ZM99.6161 7.25601H104.868C105.619 7.25601 106.343 7.32941 107.042 7.47622C107.741 7.62303 108.355 7.86894 108.885 8.21394C109.414 8.55895 109.837 9.02139 110.154 9.6013C110.47 10.1812 110.628 10.9042 110.628 11.7704C110.628 12.754 110.459 13.5468 110.121 14.1487C109.782 14.7507 109.326 15.2168 108.752 15.5471C108.179 15.8774 107.513 16.1013 106.755 16.2188C105.997 16.3362 105.207 16.3949 104.383 16.3949H102.397V22.8472H99.6161V7.25601ZM104.074 14.0166C104.471 14.0166 104.883 14.0019 105.31 13.9726C105.736 13.9432 106.13 13.8551 106.49 13.7083C106.851 13.5615 107.145 13.3413 107.373 13.0477C107.601 12.754 107.715 12.343 107.715 11.8145C107.715 11.33 107.612 10.9446 107.406 10.6583C107.2 10.372 106.935 10.1518 106.612 9.99768C106.288 9.84353 105.928 9.74444 105.53 9.70039C105.133 9.65635 104.751 9.63433 104.383 9.63433H102.397V14.0166H104.074ZM112.526 12.2769H115.174V13.9505H115.218C115.513 13.3339 115.932 12.8568 116.476 12.5191C117.021 12.1815 117.646 12.0127 118.352 12.0127C118.514 12.0127 118.672 12.0273 118.826 12.0567C118.981 12.0861 119.139 12.1228 119.301 12.1668V14.7213C119.08 14.6626 118.863 14.6149 118.65 14.5782C118.437 14.5415 118.227 14.5231 118.021 14.5231C117.403 14.5231 116.907 14.6369 116.531 14.8644C116.156 15.092 115.869 15.3526 115.671 15.6462C115.472 15.9398 115.34 16.2334 115.273 16.5271C115.207 16.8207 115.174 17.0409 115.174 17.1877V22.8472H112.526V12.2769ZM119.853 17.5621C119.853 16.7253 120.003 15.9655 120.305 15.2828C120.607 14.6002 121.015 14.0166 121.53 13.5321C122.045 13.0477 122.655 12.6733 123.361 12.409C124.068 12.1448 124.818 12.0127 125.612 12.0127C126.407 12.0127 127.157 12.1448 127.863 12.409C128.57 12.6733 129.18 13.0477 129.695 13.5321C130.21 14.0166 130.618 14.6002 130.92 15.2828C131.221 15.9655 131.372 16.7253 131.372 17.5621C131.372 18.3989 131.221 19.1586 130.92 19.8413C130.618 20.524 130.21 21.1075 129.695 21.592C129.18 22.0765 128.57 22.4508 127.863 22.7151C127.157 22.9794 126.407 23.1115 125.612 23.1115C124.818 23.1115 124.068 22.9794 123.361 22.7151C122.655 22.4508 122.045 22.0765 121.53 21.592C121.015 21.1075 120.607 20.524 120.305 19.8413C120.003 19.1586 119.853 18.3989 119.853 17.5621ZM122.501 17.5621C122.501 17.9731 122.571 18.3695 122.71 18.7512C122.85 19.1329 123.056 19.4706 123.328 19.7642C123.601 20.0578 123.928 20.2927 124.31 20.4689C124.693 20.6451 125.127 20.7332 125.612 20.7332C126.098 20.7332 126.532 20.6451 126.914 20.4689C127.297 20.2927 127.624 20.0578 127.897 19.7642C128.169 19.4706 128.375 19.1329 128.514 18.7512C128.654 18.3695 128.724 17.9731 128.724 17.5621C128.724 17.151 128.654 16.7546 128.514 16.3729C128.375 15.9912 128.169 15.6535 127.897 15.3599C127.624 15.0663 127.297 14.8314 126.914 14.6552C126.532 14.4791 126.098 14.391 125.612 14.391C125.127 14.391 124.693 14.4791 124.31 14.6552C123.928 14.8314 123.601 15.0663 123.328 15.3599C123.056 15.6535 122.85 15.9912 122.71 16.3729C122.571 16.7546 122.501 17.151 122.501 17.5621ZM132.277 14.5231V12.2769H134.462V9.21592H137.11V12.2769H140.023V14.5231H137.11V19.1476C137.11 19.6761 137.209 20.0945 137.408 20.4028C137.607 20.7111 138 20.8653 138.589 20.8653C138.824 20.8653 139.081 20.8396 139.361 20.7882C139.641 20.7368 139.861 20.6524 140.023 20.535V22.7591C139.743 22.8913 139.401 22.983 138.997 23.0344C138.592 23.0858 138.235 23.1115 137.927 23.1115C137.22 23.1115 136.643 23.0344 136.194 22.8803C135.745 22.7261 135.392 22.4912 135.135 22.1756C134.877 21.8599 134.701 21.4672 134.605 20.9974C134.51 20.5276 134.462 19.9844 134.462 19.3678V14.5231H132.277ZM141.237 17.5621C141.237 16.7253 141.388 15.9655 141.689 15.2828C141.991 14.6002 142.399 14.0166 142.914 13.5321C143.429 13.0477 144.039 12.6733 144.746 12.409C145.452 12.1448 146.202 12.0127 146.997 12.0127C147.791 12.0127 148.541 12.1448 149.248 12.409C149.954 12.6733 150.564 13.0477 151.079 13.5321C151.594 14.0166 152.002 14.6002 152.304 15.2828C152.606 15.9655 152.756 16.7253 152.756 17.5621C152.756 18.3989 152.606 19.1586 152.304 19.8413C152.002 20.524 151.594 21.1075 151.079 21.592C150.564 22.0765 149.954 22.4508 149.248 22.7151C148.541 22.9794 147.791 23.1115 146.997 23.1115C146.202 23.1115 145.452 22.9794 144.746 22.7151C144.039 22.4508 143.429 22.0765 142.914 21.592C142.399 21.1075 141.991 20.524 141.689 19.8413C141.388 19.1586 141.237 18.3989 141.237 17.5621ZM143.885 17.5621C143.885 17.9731 143.955 18.3695 144.095 18.7512C144.234 19.1329 144.44 19.4706 144.713 19.7642C144.985 20.0578 145.312 20.2927 145.695 20.4689C146.077 20.6451 146.511 20.7332 146.997 20.7332C147.482 20.7332 147.916 20.6451 148.299 20.4689C148.681 20.2927 149.008 20.0578 149.281 19.7642C149.553 19.4706 149.759 19.1329 149.899 18.7512C150.038 18.3695 150.108 17.9731 150.108 17.5621C150.108 17.151 150.038 16.7546 149.899 16.3729C149.759 15.9912 149.553 15.6535 149.281 15.3599C149.008 15.0663 148.681 14.8314 148.299 14.6552C147.916 14.4791 147.482 14.391 146.997 14.391C146.511 14.391 146.077 14.4791 145.695 14.6552C145.312 14.8314 144.985 15.0663 144.713 15.3599C144.44 15.6535 144.234 15.9912 144.095 16.3729C143.955 16.7546 143.885 17.151 143.885 17.5621ZM162.135 15.448C161.826 15.125 161.503 14.8681 161.164 14.6773C160.826 14.4864 160.48 14.391 160.127 14.391C159.642 14.391 159.208 14.4791 158.825 14.6552C158.443 14.8314 158.115 15.0663 157.843 15.3599C157.571 15.6535 157.365 15.9912 157.225 16.3729C157.085 16.7546 157.016 17.151 157.016 17.5621C157.016 17.9731 157.085 18.3695 157.225 18.7512C157.365 19.1329 157.571 19.4706 157.843 19.7642C158.115 20.0578 158.443 20.2927 158.825 20.4689C159.208 20.6451 159.642 20.7332 160.127 20.7332C160.539 20.7332 160.922 20.6488 161.275 20.4799C161.628 20.3111 161.929 20.0652 162.18 19.7422L163.945 21.6361C163.68 21.9003 163.375 22.1279 163.029 22.3187C162.683 22.5096 162.334 22.6637 161.981 22.7812C161.628 22.8986 161.289 22.983 160.966 23.0344C160.642 23.0858 160.363 23.1115 160.127 23.1115C159.333 23.1115 158.582 22.9794 157.876 22.7151C157.17 22.4508 156.559 22.0765 156.045 21.592C155.53 21.1075 155.121 20.524 154.82 19.8413C154.518 19.1586 154.367 18.3989 154.367 17.5621C154.367 16.7253 154.518 15.9655 154.82 15.2828C155.121 14.6002 155.53 14.0166 156.045 13.5321C156.559 13.0477 157.17 12.6733 157.876 12.409C158.582 12.1448 159.333 12.0127 160.127 12.0127C160.804 12.0127 161.484 12.1411 162.168 12.398C162.853 12.6549 163.452 13.0623 163.967 13.6202L162.135 15.448ZM164.673 17.5621C164.673 16.7253 164.824 15.9655 165.126 15.2828C165.427 14.6002 165.835 14.0166 166.35 13.5321C166.865 13.0477 167.476 12.6733 168.182 12.409C168.888 12.1448 169.639 12.0127 170.433 12.0127C171.228 12.0127 171.978 12.1448 172.684 12.409C173.39 12.6733 174.001 13.0477 174.516 13.5321C175.031 14.0166 175.439 14.6002 175.74 15.2828C176.042 15.9655 176.193 16.7253 176.193 17.5621C176.193 18.3989 176.042 19.1586 175.74 19.8413C175.439 20.524 175.031 21.1075 174.516 21.592C174.001 22.0765 173.39 22.4508 172.684 22.7151C171.978 22.9794 171.228 23.1115 170.433 23.1115C169.639 23.1115 168.888 22.9794 168.182 22.7151C167.476 22.4508 166.865 22.0765 166.35 21.592C165.835 21.1075 165.427 20.524 165.126 19.8413C164.824 19.1586 164.673 18.3989 164.673 17.5621ZM167.321 17.5621C167.321 17.9731 167.391 18.3695 167.531 18.7512C167.671 19.1329 167.877 19.4706 168.149 19.7642C168.421 20.0578 168.749 20.2927 169.131 20.4689C169.514 20.6451 169.948 20.7332 170.433 20.7332C170.919 20.7332 171.353 20.6451 171.735 20.4689C172.118 20.2927 172.445 20.0578 172.717 19.7642C172.989 19.4706 173.195 19.1329 173.335 18.7512C173.475 18.3695 173.545 17.9731 173.545 17.5621C173.545 17.151 173.475 16.7546 173.335 16.3729C173.195 15.9912 172.989 15.6535 172.717 15.3599C172.445 15.0663 172.118 14.8314 171.735 14.6552C171.353 14.4791 170.919 14.391 170.433 14.391C169.948 14.391 169.514 14.4791 169.131 14.6552C168.749 14.8314 168.421 15.0663 168.149 15.3599C167.877 15.6535 167.671 15.9912 167.531 16.3729C167.391 16.7546 167.321 17.151 167.321 17.5621ZM178.378 6.19897H181.026V22.8472H178.378V6.19897Z" fill="white"/>
</svg>
